Patient4_TMGait_0pt3_03_left_02_EMG.mot
version=1
nRows=23
nColumns=33
inDegrees=no
endheader
time	1LAddLong	2LGlutMax	3LGlutMed	4LIliopsoas	5LSemiMemb	6LBicFemLong	7LRecFem	8LVastMed	9LVastLat	10LGasMed	11LTibAnt	12lTibPost	13LPeroneusLong	14LSol	15LExtDigLong	16LFlexDigLong	17RAddLong	18RGlutMax	19RGlutMed	20RIliopsoas	21RSemiMemb	22RBicFemLong	23RRecFem	24RVastMed	25RVastLat	26RGasMed	27RTibAnt	28RTibPost	29RPeroneusLong	30RSol	31RExtDigLong	32RFlexDigLong
4.65	0.003967	-0.032043	-0.028839	0.009308	-0.011597	0.038757	0.022583	-0.000916	-0.04303	-0.008545	0.070648	0.008698	-0.011902	-0.041199	0.015564	-0.005493	0.018616	-0.63126	-0.059204	-0.24216	-0.025482	-0.01358	0.15106	-0.14389	0.002899	-0.04364	0.008698	0.25452	1.3043	0.45853	0.005646	-0.003204
4.651	0.008392	-0.066223	0.019989	0.005798	-0.007629	0.036469	0.017395	0.00946	-0.059052	-0.00946	0.067444	-0.001068	-0.014954	-0.038452	-0.010986	0.002747	0.006409	-0.46143	0.12619	-0.19943	-0.002136	0.012817	0.30426	-0.21072	-0.088348	-0.10941	0.037994	0.26032	1.454	0.4277	0.000153	0.005035
4.652	0.004425	-0.061188	0.01236	0.006409	-0.01297	0.026245	0.016174	0.003357	-0.048828	0.003967	0.041046	0.005035	-0.023193	-0.024567	-0.14008	-0.003204	0.026093	-0.34973	-0.52826	-0.070038	-0.001831	0.0737	0.20172	-0.14633	-0.1648	-0.10849	0.10574	0.13275	0.71014	0.28168	-0.001678	-0.013123
4.653	0.008392	-0.087585	0.000153	0.013123	-0.003815	0.027313	0.021057	0.003815	-0.053711	-0.000305	0.030365	0.005493	-0.009003	-0.032043	-0.049286	-0.005646	0.014496	-0.25559	-1.2503	0.12787	0.016479	0.04776	0.094604	-0.057831	-0.082245	0.00473	0.082397	0.023193	-0.58685	-0.31387	0.006866	-0.012054
4.654	0.008087	-0.040131	-0.008087	0.010071	-0.009766	0.031281	0.00351	0.013428	-0.060425	-0.006409	0.008087	0.001373	-0.012817	-0.03952	0.034027	0.001526	0.018921	-0.16861	-0.25909	0.12512	-0.011902	-0.014191	-0.061493	-0.10956	-0.14404	0.20172	-0.068512	-0.29724	-0.96649	-1.1798	-0.001526	-0.016327
4.655	0.000458	-0.082092	0.037842	-0.00946	-0.004425	0.017548	0.009918	0.005646	-0.061188	-0.005035	-0.003815	0.009308	-0.002441	-0.036926	0.077515	0.005035	0.035095	-0.20325	0.47699	0.024719	0.048981	-0.05127	-0.50873	-0.19974	-0.02243	0.10574	0.018921	-0.47195	-1.1092	-1.075	-0.007019	-0.013123
4.656	0.002594	-0.084229	0.036621	-0.001373	-0.007019	0.017548	0.019989	0.003815	-0.056763	-0.009003	0.013885	0.002747	0.039673	-0.048523	0.048218	0.002594	0.058594	-0.31891	0.58701	-0.033264	0.053101	0.003204	-0.71091	-0.26123	-0.088959	0.04776	0.02533	0.37811	-0.69199	-1.3968	-0.003052	-0.005798
4.657	0.009766	-0.068207	0.048065	-0.012665	-0.007935	0.037842	0.008698	0.004883	-0.06897	-0.007629	0.005035	0.009613	0.016937	-0.049591	0.07431	-0.007477	0.061188	-0.33142	0.233	0.012817	-0.054321	0.09613	-0.26077	-0.28168	-0.20477	-0.029297	0.02121	0.033569	-0.85007	-1.3577	-0.007324	-0.013885
4.658	0.00824	-0.033722	0.050049	0.012512	-0.009766	0.025177	0.008698	0.003815	-0.071106	0.013123	0.013428	0.005035	-0.027008	-0.033264	0.1416	0.006104	0.019836	-0.32074	0.31509	0.086212	-0.098877	0.11459	-0.04776	-0.092926	-0.15396	-0.069885	-0.001831	-0.092926	-0.4805	-0.73227	-0.003967	-0.020142
4.659	0.007629	-0.035248	-0.024261	0.02243	-0.010681	0.02243	-0.001373	0.001068	-0.072021	0.004272	-0.023651	0.009918	-0.042267	0.024567	0.050659	0.000305	-0.040283	-0.35675	0.032043	0.010223	0.03067	0.035095	-0.34759	0.1207	-0.037384	-0.097198	-0.055847	0.075531	0.56717	-0.42664	-0.003204	-0.028992
4.66	0.012207	-0.074768	-0.11307	0.007935	-0.016022	0.022888	-0.002594	0.001373	-0.061493	-0.015717	-0.023041	0.004578	-0.034637	0.048523	-0.04364	-0.00351	-0.047302	-0.29724	-0.2446	-0.026855	0.023499	-0.038452	-0.53604	0.29236	0.10468	-0.066071	-0.069733	0.060272	0.58563	0.32059	-0.001221	-0.032654
4.661	0.011292	-0.072174	-0.088043	0.001373	-0.004272	0.019836	0.009308	0.006256	-0.046997	-0.007935	-0.006409	0.00473	-0.006104	0.01297	-0.032654	-0.001831	-0.050507	-0.159	-0.47287	0.038452	0.028839	-0.046997	-0.35873	0.42679	0.30685	-0.072174	-0.06958	0.34683	0.32349	1.5552	-0.002441	-0.03479
4.662	0.010376	-0.08255	-0.03952	0.011444	-0.003357	0.010681	-0.007324	0.005951	-0.065613	-0.008698	-0.02243	0.000916	0.00885	-0.014191	-0.044403	-0.002594	0.022278	-0.028992	-0.45837	0.21606	0.025482	-0.045624	-0.093842	0.24185	0.37125	-0.022583	-0.051575	0.35294	0.19928	1.9553	-0.006866	0.00351
4.663	0.013733	-0.054779	-0.034485	0.00885	0.000305	0.027161	0.012512	0.00412	-0.056763	-0.021667	0.025024	0.003204	-0.037689	-0.054626	0.07843	0.004883	0.02121	-0.040894	-0.015106	0.30685	0.07309	-0.032043	-0.10284	0.093536	0.34286	-0.040741	-0.010681	0.30777	0.4512	1.3751	-0.007172	0.008087
4.664	0.010834	-0.06546	-0.006561	0.011444	-0.011139	0.018463	0.012207	0.002594	-0.048218	-0.007629	0.034485	0	-0.029449	-0.031281	0.091858	-0.000305	-0.042114	-0.09079	0.18585	0.13428	-0.20248	0.067444	-0.17044	-0.016632	0.24994	-0.024719	0.00473	0.12894	0.5275	0.13718	-0.003967	0.009003
4.665	0.00351	-0.04837	0.047913	0.001984	-0.011597	0.020294	0.005798	0.002136	-0.056152	-0.00824	0.037384	0.009003	-0.027771	-0.082397	0.021362	-0.002289	-0.024567	-0.022736	-0.52948	-0.021057	-0.31403	0.025635	-0.168	-0.10101	0.40588	0.007629	-0.036774	0.054474	0.48325	0.023804	-0.00412	0.009613
4.666	0.015411	-0.050659	0.050354	0.003662	-0.036469	0.015411	0.004272	0.001678	-0.051727	-0.011292	0.021362	0.002289	-0.012817	-0.016327	0.033112	-0.002289	0.010071	0.1152	0.19806	-0.046234	-0.1593	0.007477	-0.077667	-0.2388	0.58166	0.10895	-0.042725	-0.46356	0.40741	0.88776	-0.006256	0.010986
4.667	0.003357	-0.072479	0.026398	0.023804	-0.025635	0.010529	0.004272	0.003204	-0.059814	-0.014648	0.019226	0.001678	-0.023041	0.026855	0.034943	0.005646	0.037994	0.20477	0.39719	-0.062714	-0.04303	-0.00473	0.11169	-0.24063	0.46341	0.088043	-0.007019	-0.068207	0.12466	0.60883	-0.003967	0.010986
4.668	0.00061	-0.068054	0.009308	0.00946	0.002594	-0.017242	0.008392	0.003662	-0.066223	-0.013733	0.016785	0.009155	-0.036163	-0.01297	0.039825	-0.003052	0.046539	0.14572	-0.061188	0.003357	0.19852	-0.051727	0.1648	-0.19134	0.25589	0.063324	0.014801	-0.055084	-0.020599	0.36697	-0.003662	0.000458
4.669	-0.035248	-0.094757	-0.033875	-0.006714	-0.00473	0.000153	0.015259	0.010681	-0.07782	-0.01297	0.008392	0.000763	0.011444	-0.032806	0.054474	-0.000916	0.05249	0.034485	-0.21896	-0.027466	0.1152	-0.088348	0.10681	-0.093079	0.15396	0.051575	0.022736	0.12421	-0.13428	0.46524	-0.003967	0
4.67	0.02533	-0.090637	-0.026703	0.002441	-0.007324	0.018463	0.016632	0.002899	-0.087738	-0.012512	0.019073	0.000763	-0.000916	-0.029907	0.040283	0.001221	0.035095	-0.048981	-0.70496	-0.046844	-0.21332	0.030823	-0.078125	-0.06958	0.082703	0.04425	0.017853	-0.159	-0.22751	0.18188	-0.005798	-0.002136
4.671	0.026703	-0.055847	-0.002747	-0.00412	0.002899	0.036316	0.019073	0.004272	-0.067139	-0.010071	0.063324	0.006866	-0.013885	-0.015259	-0.003052	-0.001678	0.005951	-0.12589	0.25528	-0.073242	-0.66406	0.090942	-0.10178	-0.042572	-0.12466	0.044556	0.02594	-0.093689	-0.12177	-0.045471	-0.005493	-0.00412
4.672	0.015106	-0.06073	-0.006714	0.010223	0.019226	0.058594	0.02121	0.003052	-0.06424	-0.002594	0.099792	0.001526	-0.009308	-0.028076	-0.01297	0.005188	0.044556	-0.16892	0.46951	-0.09903	-0.62332	0.059204	-0.032959	-0.010071	-0.48386	0.050354	0.020142	0.061951	0.12085	-0.1648	-0.003357	-0.010529
